<?xml version="1.0" standalone="no"?>
<!DOCTYPE svg PUBLIC "-//W3C//DTD SVG 20010904//EN"
 "http://www.w3.org/TR/2001/REC-SVG-20010904/DTD/svg10.dtd">
<svg version="1.0" xmlns="http://www.w3.org/2000/svg"
 width="522.000000pt" height="409.000000pt" viewBox="0 0 522.000000 409.000000"
 preserveAspectRatio="xMidYMid meet">

<g transform="translate(0.000000,409.000000) scale(0.100000,-0.100000)"
fill="#000000" stroke="none">
<path d="M1815 3701 c-33 -4 -76 -16 -95 -26 -19 -10 -62 -23 -96 -31 -104
-21 -179 -69 -233 -148 -26 -38 -36 -43 -123 -69 -69 -21 -104 -27 -131 -22
-28 5 -37 4 -39 -6 -1 -8 -4 29 -7 81 l-6 95 -100 3 c-55 2 -115 0 -132 -3
l-33 -6 4 -87 3 -87 -53 3 c-32 2 -74 -3 -104 -13 l-50 -17 0 -59 0 -59 68 0
69 0 6 -122 c4 -66 7 -145 7 -174 0 -55 8 -64 55 -64 l23 0 8 -277 c5 -153 9
-291 9 -308 0 -26 -4 -31 -35 -36 l-35 -6 32 -2 c17 0 34 -5 37 -9 2 -4 -11
-6 -31 -4 l-36 4 5 -166 c4 -151 3 -166 -12 -166 -10 0 -41 -10 -69 -22 -44
-18 -52 -25 -47 -42 3 -12 6 -38 6 -58 l0 -38 104 0 104 0 7 -260 c4 -143 11
-260 16 -260 5 0 9 5 9 11 0 7 12 -1 27 -16 24 -23 34 -26 68 -22 49 7 95 53
95 96 0 33 -51 91 -78 90 -15 0 -14 -2 2 -12 55 -34 72 -81 43 -121 -14 -19
-42 -12 -81 18 -25 20 -25 69 -1 96 23 25 18 29 -22 18 -20 -5 -39 -19 -47
-36 -14 -26 -15 -23 -16 58 -1 47 -2 112 -3 146 l-2 61 26 -28 c45 -49 121
-33 155 32 20 40 18 54 -16 92 -28 33 -29 35 -10 40 16 4 20 0 20 -20 0 -16 7
-27 20 -30 11 -3 20 -10 21 -17 4 -41 7 -118 13 -316 4 -124 9 -252 11 -285 4
-77 17 -456 20 -557 1 -91 6 -88 -130 -88 l-90 0 -1 40 c-2 44 13 53 34 20 7
-11 20 -20 30 -20 13 0 10 6 -13 25 -20 17 -38 23 -53 20 -16 -4 -21 -2 -17 5
8 12 -8 9 -134 -27 -106 -30 -188 -68 -206 -97 -11 -16 -14 -45 -11 -112 2
-49 4 -137 5 -196 l1 -108 2126 0 2127 0 -7 173 c-3 94 -7 214 -7 265 -1 86
-3 95 -28 121 -29 31 -139 70 -255 90 -33 6 -61 13 -64 15 -7 7 -39 1120 -33
1128 3 4 34 8 68 9 41 1 72 9 92 22 29 18 31 23 31 78 l0 59 -66 0 -66 0 6 58
c10 77 10 102 2 132 -4 14 -10 58 -13 98 l-6 72 -32 0 -33 0 -6 103 c-3 56 -8
198 -12 315 l-6 212 31 0 c18 0 33 6 36 13 8 26 12 297 4 297 -5 0 -9 11 -9
25 0 18 5 25 18 25 10 0 40 7 66 16 l47 16 -3 62 -3 61 -102 -1 -103 -1 0 89
0 89 -117 -5 c-165 -6 -153 -1 -153 -63 l0 -53 -112 -2 c-111 -2 -111 -2 -23
-5 50 -2 100 -5 113 -8 24 -6 31 -35 8 -35 -7 0 -19 -6 -25 -14 -10 -12 -7
-15 16 -19 15 -2 0 -5 -34 -6 -41 0 -81 -9 -116 -25 -62 -27 -167 -43 -347
-51 -121 -5 -123 -5 -80 10 27 9 83 15 137 15 83 0 101 4 200 41 59 23 112 46
117 50 6 5 -26 9 -73 9 -85 0 -99 11 -38 29 25 7 27 9 10 10 -13 1 -23 7 -23
16 0 8 -21 37 -47 64 -58 59 -91 69 -226 70 -105 1 -141 -9 -193 -52 -25 -21
-43 -27 -80 -27 -52 0 -138 -34 -163 -63 -7 -10 -22 -17 -32 -17 -15 0 -19 8
-19 40 0 48 -15 82 -43 99 -20 13 -20 12 2 -13 27 -29 21 -47 -10 -27 -19 11
-20 10 -13 -11 4 -13 10 -52 14 -88 6 -57 4 -68 -14 -92 -24 -30 -45 -38 -98
-38 l-38 0 0 103 c0 67 4 107 12 115 7 7 33 12 59 12 42 0 47 3 51 25 7 33 -1
37 -63 34 -40 -2 -57 -9 -80 -30 -25 -24 -29 -34 -29 -83 l0 -56 -252 0 c-139
0 -277 -3 -305 -6 -45 -6 -53 -4 -53 10 0 9 -5 16 -11 16 -5 0 -8 4 -5 9 6 9
-58 72 -93 90 -12 7 -29 10 -37 7 -7 -3 -13 0 -11 6 3 16 -101 67 -148 72 -22
2 -67 1 -100 -3z m161 -40 c29 -13 64 -35 79 -51 16 -16 33 -26 39 -23 6 3 8
3 4 -2 -4 -4 1 -20 12 -35 11 -16 20 -33 20 -39 0 -6 5 -11 12 -11 6 0 9 -3 5
-6 -3 -3 -1 -17 4 -31 5 -14 11 -41 14 -59 l4 -34 -75 0 c-81 0 -97 8 -102 49
-7 69 -110 175 -200 206 -93 33 -92 31 -37 49 65 21 155 15 221 -13z m1627
-15 c71 -26 116 -65 145 -128 l27 -60 70 6 70 6 -84 -35 c-47 -19 -101 -35
-122 -35 -34 0 -37 3 -43 34 -8 41 -38 81 -74 100 -32 16 -88 19 -112 6 -12
-7 -27 -2 -51 15 -18 14 -42 25 -52 25 -17 0 -17 2 -6 16 14 17 61 43 99 55
39 11 91 9 133 -5z m-692 -16 c6 0 7 5 4 10 -4 6 8 10 28 10 57 0 52 -14 -9
-25 -70 -12 -72 -17 -73 -152 -1 -67 -4 -93 -13 -93 -17 0 -11 181 6 193 8 5
7 10 -4 17 -13 9 -10 14 15 36 17 16 31 22 33 15 2 -6 8 -11 13 -11z m810 6
c40 -17 74 -50 65 -65 -9 -13 -44 -10 -50 6 -3 7 -24 26 -47 43 -32 23 -37 30
-22 30 11 0 36 -6 54 -14z m-1937 -35 c23 -10 58 -32 78 -50 36 -32 55 -40 42
-19 -4 7 -3 8 5 4 6 -4 9 -11 6 -16 -3 -5 7 -33 22 -62 48 -96 48 -88 0 -88
-41 0 -44 2 -60 39 -22 50 -80 108 -132 132 -49 23 -148 25 -196 5 -36 -15
-113 -70 -164 -116 -16 -15 -55 -36 -85 -45 -30 -10 -63 -23 -72 -30 -15 -10
-11 -12 29 -14 52 -1 58 -4 48 -21 -8 -12 -305 -11 -305 1 0 3 30 14 66 24 36
10 68 24 71 31 3 8 19 14 37 14 18 0 66 11 106 25 87 30 81 29 73 8 -13 -34
16 -1 46 52 74 131 247 187 385 126z m2493 23 c-3 -3 -12 -4 -19 -1 -8 3 -5 6
6 6 11 1 17 -2 13 -5z m79 -95 c1 -60 -2 -78 -15 -86 -9 -5 -58 -8 -113 -5
l-98 4 0 85 0 84 113 -3 112 -3 1 -76z m-2186 19 c0 -18 -17 -6 -34 25 l-19
32 26 -24 c15 -14 27 -28 27 -33z m894 26 c10 -25 7 -102 -4 -109 -6 -4 -10 6
-10 22 0 15 -3 45 -6 66 -7 37 8 53 20 21z m339 -23 c49 -23 75 -45 101 -86
20 -31 31 -79 15 -69 -5 3 -6 10 -3 16 4 6 1 9 -7 6 -8 -3 -13 -14 -11 -24 2
-14 0 -15 -6 -6 -10 15 -33 8 -77 -21 -16 -11 -27 -17 -23 -12 14 15 -64 94
-118 121 -44 22 -64 26 -109 22 -30 -3 -55 -3 -55 -1 0 1 19 15 43 30 88 56
166 63 250 24z m-2422 -1 l80 0 -2 -62 c-1 -35 0 -67 1 -73 1 -5 2 -14 1 -20
-2 -13 -207 -20 -215 -7 -3 6 -8 44 -10 86 l-4 76 29 0 c16 0 29 6 30 13 0 10
2 10 6 0 3 -9 30 -13 84 -13z m741 -21 c51 -17 70 -29 98 -65 36 -45 46 -81
21 -76 -7 1 -19 -2 -26 -8 -6 -5 -24 -11 -38 -12 -19 -2 -23 -5 -16 -14 8 -9
5 -11 -10 -7 -12 3 -18 10 -14 16 4 6 1 7 -6 3 -7 -5 -10 -14 -7 -22 3 -8 1
-14 -4 -14 -6 0 -10 4 -10 9 0 4 -18 28 -39 53 -48 54 -112 82 -177 76 l-45
-3 28 22 c34 28 118 62 155 62 15 1 56 -8 90 -20z m1868 -14 c32 -16 60 -61
60 -95 0 -16 -6 -20 -34 -20 -19 0 -41 -3 -50 -6 -11 -4 -16 0 -16 13 0 10
-12 35 -26 56 -20 31 -23 41 -14 53 16 18 43 18 80 -1z m-770 -40 c0 -13 -38
-15 -277 -15 -153 0 -296 -3 -318 -6 -34 -6 -38 -4 -27 7 10 11 61 15 210 19
403 11 412 11 412 -5z m432 -4 c13 -5 26 -8 29 -7 9 2 65 -66 83 -101 12 -24
23 -33 41 -33 23 0 25 -4 25 -45 0 -41 -2 -45 -24 -45 -18 0 -27 -8 -35 -30
-27 -80 -96 -129 -179 -130 -80 0 -147 41 -184 114 l-20 38 -331 -6 c-183 -3
-471 -9 -642 -12 l-310 -6 -22 -48 c-60 -136 -253 -142 -335 -9 -23 36 -37 49
-54 49 -22 0 -24 4 -24 49 0 43 3 50 22 53 12 2 29 18 40 38 24 44 87 104 113
108 106 16 179 -13 229 -91 l33 -52 274 4 c966 13 1001 14 1013 36 39 72 61
98 99 116 45 20 120 25 159 10z m-432 -56 l0 -35 -230 -2 c-126 -1 -267 -3
-312 -3 l-82 0 -1 30 0 30 235 5 c129 3 270 7 313 8 l77 2 0 -35z m1697 29
c-8 -9 -127 -10 -127 -1 0 4 30 7 67 7 36 0 64 -3 60 -6z m-337 -34 c16 0 19
-9 22 -52 l3 -53 106 3 c91 3 107 1 113 -13 3 -9 1 -26 -5 -37 -8 -15 -8 -19
0 -14 7 5 11 -7 12 -36 1 -136 0 -178 -7 -189 -5 -8 -3 -9 6 -4 9 6 10 2 5
-16 -11 -36 -13 -36 -105 -43 -199 -14 -245 -9 -254 27 -7 31 -9 327 -2 334 3
4 6 28 6 55 l0 49 35 -7 c26 -5 35 -3 36 7 0 11 2 11 6 2 2 -7 13 -13 23 -13z
m-120 -40 c0 -45 -2 -50 -22 -50 -21 0 -23 4 -20 50 3 41 7 50 23 50 16 0 19
-8 19 -50z m432 8 c3 -24 3 -45 2 -47 -2 -2 -64 -6 -139 -9 l-135 -5 0 45 c0
25 3 48 7 51 3 4 64 7 134 7 l127 0 4 -42z m-3672 2 c0 -6 -29 -10 -67 -9 -47
0 -62 3 -48 9 28 12 115 12 115 0z m205 -29 l-50 -18 -3 -50 -3 -50 -42 4
c-108 12 -162 -128 -82 -213 26 -27 40 -34 71 -34 51 0 83 18 112 60 24 35 26
80 8 123 -7 15 -3 17 30 16 22 0 46 -3 54 -7 18 -8 25 -32 9 -32 -5 0 -7 -5
-3 -12 4 -6 7 -57 8 -114 1 -113 1 -114 -66 -114 -16 0 -28 -4 -28 -10 0 -5 9
-10 19 -10 16 0 20 -9 23 -50 1 -28 -1 -50 -5 -50 -5 0 -5 -5 -1 -11 9 -15 12
-60 18 -259 3 -96 6 -175 6 -175 1 0 3 -12 4 -27 1 -16 -3 -28 -9 -28 -5 0 -3
-4 5 -10 21 -13 -6 -22 -77 -24 -35 0 -58 -6 -61 -14 -4 -14 24 -15 133 -4
l70 7 4 -135 c2 -74 4 -152 5 -172 2 -34 -1 -38 -22 -38 -15 0 -26 -7 -29 -19
-3 -11 -13 -21 -24 -24 -14 -4 -19 -14 -19 -41 l0 -36 -49 0 c-55 0 -61 7 -61
72 l0 41 -132 -7 c-131 -6 -132 -6 -83 10 34 11 51 12 53 5 10 -31 18 -3 15
56 -2 38 -5 115 -6 173 l-3 105 67 -3 c54 -3 67 -1 72 12 5 13 -1 16 -33 16
l-40 0 0 46 0 47 20 -26 c21 -27 63 -42 83 -30 7 4 19 8 27 10 24 3 60 55 60
86 0 44 -59 97 -108 97 -41 0 -76 -27 -85 -65 -3 -11 -6 25 -7 80 -1 55 -3
124 -4 153 -2 28 -1 52 2 52 2 0 13 -11 24 -25 43 -54 149 -15 164 61 4 24 0
37 -21 62 -48 57 -130 59 -160 3 -14 -25 -14 -25 -15 27 l0 52 85 0 c50 0 85
4 85 10 0 6 -30 8 -82 4 -46 -3 -100 -2 -121 3 l-39 8 -4 80 c-2 44 -5 118 -6
165 l-3 85 70 5 70 5 3 52 3 52 62 4 c34 2 69 4 77 4 8 1 -7 -6 -35 -16z
m1955 5 c0 -11 -72 -15 -417 -20 -230 -3 -499 -8 -598 -11 -171 -4 -177 -4
-128 10 49 14 244 20 1046 33 77 2 97 -1 97 -12z m-2080 -41 l0 -45 -62 0
c-35 0 -93 -3 -130 -7 l-68 -6 0 52 0 51 130 0 130 0 0 -45z m2935 18 c-4 -16
-8 -38 -10 -49 -6 -26 -42 -32 -237 -41 l-138 -6 0 41 c0 22 -3 49 -6 59 -4
13 -3 14 3 5 8 -10 45 -11 194 -1 101 6 186 13 188 15 10 9 11 3 6 -23z m217
-198 c4 -187 6 -194 54 -195 21 0 22 -6 28 -132 3 -73 7 -214 8 -313 l3 -180
-30 -5 -30 -5 0 -143 0 -142 -105 -2 -105 -2 100 -5 c96 -6 100 -7 109 -32 12
-35 2 -59 -24 -59 -11 0 -42 -11 -68 -24 -53 -27 -154 -43 -332 -51 -160 -7
-2460 -27 -2485 -21 -11 2 -30 5 -42 5 -30 1 -29 17 0 25 13 3 40 17 61 31 20
14 44 25 53 25 9 0 42 10 75 21 32 12 61 20 64 17 2 -3 8 -25 12 -49 l8 -44
174 -3 c243 -5 2073 17 2080 25 3 3 -1 8 -7 10 -9 3 -13 31 -13 89 l0 84 30 0
30 0 0 -69 c0 -38 3 -76 6 -85 4 -12 0 -16 -15 -16 -12 0 -21 -5 -21 -10 0
-17 49 -1 133 44 74 39 78 42 73 70 -3 16 -6 59 -6 97 l0 69 -32 -1 c-22 0
-27 -3 -17 -7 14 -6 15 -9 3 -20 -9 -8 -14 -9 -14 -2 0 14 -48 63 -75 77 -30
16 -110 26 -150 19 -61 -12 -38 -22 43 -19 51 1 72 -1 62 -7 -8 -5 -34 -10
-58 -10 -24 0 -41 -4 -38 -8 2 -4 40 -5 83 -1 43 4 80 5 81 4 2 -2 1 -12 -2
-22 -6 -20 -11 -21 -141 -23 -133 -2 -127 -3 -123 22 3 20 9 23 48 21 35 0 37
0 11 4 -26 3 -31 7 -20 14 10 6 10 9 2 9 -10 0 -13 30 -13 118 0 128 -5 142
-52 142 l-28 0 0 94 c0 114 -10 193 -21 174 -7 -10 -9 -9 -9 3 0 19 -55 29
-165 29 l-72 0 -7 38 c-3 20 -6 61 -6 91 0 42 -3 52 -14 48 -10 -4 -13 -1 -9
9 4 11 -5 14 -45 14 -49 0 -49 0 -56 38 -3 20 -6 56 -6 79 l0 43 45 -32 c43
-30 51 -32 152 -36 126 -4 170 6 238 56 30 22 59 35 73 33 34 -4 116 27 156
58 29 23 50 30 108 35 45 5 98 18 138 36 114 49 107 58 112 -145z m-2802 115
l0 -50 -72 1 c-108 1 -183 12 -181 26 2 6 4 26 5 42 l2 31 123 0 123 0 0 -50z
m-340 -27 c-1 -9 -50 -47 -50 -39 0 5 41 46 47 46 2 0 3 -3 3 -7z m2780 3 c0
-13 -81 -48 -124 -53 l-51 -6 16 24 c9 13 29 27 45 30 33 8 114 11 114 5z
m-703 -26 c2 -17 -4 -20 -42 -20 -89 0 -104 27 -17 33 31 2 57 4 57 5 1 1 1
-7 2 -18z m-133 -5 c3 -9 -2 -11 -16 -7 -18 4 -19 2 -10 -15 6 -11 24 -26 41
-32 32 -14 41 -40 41 -121 l0 -48 -47 -7 c-27 -4 -54 -12 -60 -17 -9 -7 -13
-40 -13 -98 l0 -88 -70 -7 c-39 -4 -73 -11 -76 -16 -3 -5 27 -6 70 -2 65 5 76
4 76 -9 0 -22 21 -28 91 -28 40 0 59 4 60 13 0 10 2 10 6 0 2 -7 11 -13 19
-13 8 0 14 6 14 13 0 8 4 7 10 -3 5 -8 10 -17 10 -20 0 -6 -294 4 -470 16
-113 8 -120 9 -70 15 30 4 81 7 113 8 31 1 57 4 57 9 0 8 -205 -2 -237 -12
-18 -6 -20 -14 -20 -84 0 -70 1 -72 4 -15 l4 61 74 4 74 3 3 -140 c2 -115 0
-142 -12 -152 -10 -8 -19 -8 -28 -1 -6 6 -33 8 -60 6 l-47 -5 2 66 c1 36 -1
55 -3 41 -13 -72 11 -65 -236 -65 l-223 1 -100 -41 -100 -41 3 -83 c2 -53 -1
-88 -9 -97 -8 -10 -35 -14 -97 -14 -108 0 -102 10 9 14 98 5 94 4 86 12 -13
13 -94 15 -136 4 -46 -12 -104 -62 -116 -99 -4 -12 -22 -29 -41 -38 -29 -14
-34 -22 -34 -52 0 -35 -2 -36 -73 -64 -96 -37 -98 -36 -96 18 2 25 6 45 10 45
13 0 8 93 -7 129 -8 18 -14 55 -14 82 0 48 0 48 -39 59 l-39 10 -7 188 c-3
103 -7 241 -8 306 -2 117 -2 119 21 121 36 3 41 15 43 103 1 45 5 82 10 82 4
0 6 23 5 50 l-3 50 63 0 c55 0 64 -2 64 -18 0 -30 61 -90 125 -123 33 -17 78
-41 100 -53 32 -16 58 -21 125 -21 85 0 129 11 180 45 14 10 44 20 68 24 65
10 141 52 193 107 l46 48 119 4 c308 9 573 5 578 -8z m-1884 -7 c0 -11 -12
-10 -30 2 -12 7 -10 9 8 7 12 0 22 -5 22 -9z m990 7 c0 -15 -43 -88 -70 -118
-16 -19 -57 -46 -91 -62 -56 -25 -70 -27 -143 -23 -55 4 -95 12 -126 27 l-45
22 95 -4 c131 -6 180 9 248 79 28 29 52 60 52 69 0 11 11 15 40 15 22 0 40 -2
40 -5z m149 -12 c-8 -10 -24 -29 -38 -43 -21 -22 -23 -23 -13 -3 7 12 9 23 4
26 -4 2 -2 2 5 1 7 -2 10 3 7 11 -3 8 -13 11 -22 8 -15 -4 -15 -3 -2 6 8 6 28
11 44 11 26 0 27 -2 15 -17z m-1188 -33 c10 -6 19 -17 19 -24 0 -21 -30 -28
-46 -11 -19 18 -26 19 -43 3 -11 -11 -12 -10 -6 2 23 42 40 49 76 30z m2091
-25 c4 -5 8 -44 8 -87 l0 -76 -49 -4 -50 -3 -3 88 c-2 49 -2 90 0 91 7 7 88 0
94 -9z m-2132 -25 c0 -5 -4 -10 -10 -10 -5 0 -10 5 -10 10 0 6 5 10 10 10 6 0
10 -4 10 -10z m87 -61 c-9 -6 -15 -14 -12 -18 2 -5 -4 -11 -15 -14 -11 -3 -20
-1 -20 4 0 5 5 9 11 9 5 0 8 4 4 9 -3 5 3 12 12 14 31 8 39 7 20 -4z m2133
-87 c0 -5 -13 -7 -30 -4 -16 2 -30 6 -30 8 0 2 14 4 30 4 17 0 30 -4 30 -8z
m-188 -14 c39 0 66 -3 59 -7 -6 -4 -38 -7 -71 -6 -58 2 -60 2 -60 -24 -1 -23
-2 -24 -11 -8 -6 10 -8 26 -4 35 4 11 3 14 -4 7 -5 -5 -11 -21 -14 -35 -4 -21
-4 -21 -6 7 -1 29 14 46 32 36 5 -3 40 -5 79 -5z m156 -19 c3 -12 2 -12 -6 0
-8 11 -11 7 -14 -20 l-3 -34 -6 36 c-4 29 -1 36 10 34 8 -1 17 -8 19 -16z
m1308 -66 c1 -158 15 -527 19 -532 3 -2 1 -9 -4 -15 -10 -12 -206 -14 -218 -3
-3 4 -7 25 -9 48 l-2 41 26 -25 c37 -34 65 -40 105 -23 71 29 90 105 38 157
-24 23 -38 29 -73 29 -45 -1 -67 -12 -86 -45 -10 -18 -11 -16 -12 15 0 19 -3
88 -6 152 l-5 117 34 -34 c22 -22 45 -35 61 -35 37 0 32 18 -5 22 -19 2 -38
12 -46 25 -18 26 -1 27 37 0 13 -9 30 -17 36 -17 7 0 14 -6 16 -12 3 -8 16 -1
36 19 68 67 20 163 -81 163 -27 0 -41 -7 -61 -31 -21 -25 -26 -27 -27 -12 -1
10 -2 29 -2 43 -2 23 2 25 53 31 30 3 82 6 115 7 l60 2 1 -87z m-1277 50 c0
-16 -4 -46 -8 -68 -8 -35 -9 -32 -7 27 0 37 4 68 9 68 4 0 7 -12 6 -27z m28
-5 c-3 -8 -6 -5 -6 6 -1 11 2 17 5 13 3 -3 4 -12 1 -19z m-210 -10 c-3 -8 -6
-5 -6 6 -1 11 2 17 5 13 3 -3 4 -12 1 -19z m-50 -35 c-3 -10 -5 -2 -5 17 0 19
2 27 5 18 2 -10 2 -26 0 -35z m1439 9 c39 -28 28 -122 -14 -122 -29 0 -81 38
-88 64 -3 14 1 37 11 56 14 27 20 31 42 25 14 -3 36 -14 49 -23z m-1167 -14
c-1 -31 -1 -31 -8 -8 -5 14 -6 28 -4 33 9 15 13 6 12 -25z m-122 -35 c-3 -10
-5 -2 -5 17 0 19 2 27 5 18 2 -10 2 -26 0 -35z m50 -10 c-3 -10 -5 -2 -5 17 0
19 2 27 5 18 2 -10 2 -26 0 -35z m-2073 26 c45 -21 60 -110 21 -126 -62 -23
-117 70 -73 125 13 15 20 15 52 1z m1963 -26 c-3 -10 -5 -4 -5 12 0 17 2 24 5
18 2 -7 2 -21 0 -30z m40 -65 c-3 -8 -6 -5 -6 6 -1 11 2 17 5 13 3 -3 4 -12 1
-19z m396 2 c5 -4 -11 -11 -35 -15 -61 -11 -70 -12 -191 -20 -101 -7 -107 -6
-100 11 4 11 8 13 11 6 9 -28 92 -6 92 25 0 13 13 15 108 8 59 -4 111 -10 115
-15z m-2429 -63 c-16 -9 -60 7 -67 27 -9 23 25 25 54 2 19 -15 23 -23 13 -29z
m2454 -72 c2 -58 5 -119 7 -135 4 -26 0 -33 -23 -42 -15 -6 -33 -10 -41 -9
-23 4 -43 -8 -35 -21 11 -18 13 -36 20 -190 l7 -138 -32 0 -31 0 0 63 c0 34
-3 99 -7 145 -6 78 -5 82 14 82 28 0 37 27 13 40 -22 12 -63 13 -74 3 -4 -4
-39 -8 -79 -10 -132 -5 -247 -6 -251 -2 -2 2 -6 66 -10 141 l-6 137 92 3 c163
7 322 19 368 27 25 5 50 9 55 10 6 1 12 -40 13 -104z m-538 -72 l0 -143 -114
0 c-62 0 -133 3 -157 6 l-44 6 -3 137 -4 137 161 0 161 -1 0 -142z m-333 -20
c-3 -10 -5 -2 -5 17 0 19 2 27 5 18 2 -10 2 -26 0 -35z m1766 -13 c31 -25 39
-57 22 -95 -7 -19 -18 -35 -24 -35 -22 0 -64 22 -82 43 -22 27 -23 29 -4 73
12 30 19 35 42 32 16 -2 36 -10 46 -18z m-3285 -53 c14 -13 22 -32 22 -52 0
-60 -48 -74 -93 -27 -28 29 -28 39 -4 90 12 26 38 22 75 -11z m892 -27 c-8 -5
-19 -10 -25 -10 -5 0 -3 5 5 10 8 5 20 10 25 10 6 0 3 -5 -5 -10z m376 -15
c-53 -22 -76 -25 -255 -30 -124 -3 -191 -2 -181 4 8 5 17 8 21 5 4 -2 10 0 14
6 4 6 11 8 16 5 5 -4 9 -2 9 3 0 5 6 10 13 11 15 4 269 17 357 19 l65 1 -59
-24z m82 3 c-2 -8 7 -13 25 -12 15 1 27 -2 27 -7 0 -4 19 -10 43 -12 23 -2
-16 -4 -88 -5 l-130 -1 55 24 c65 28 71 29 68 13z m-508 -8 c-8 -5 -19 -10
-25 -10 -5 0 -3 5 5 10 8 5 20 10 25 10 6 0 3 -5 -5 -10z m2395 -35 c19 -14
18 -14 -11 -15 -36 0 -59 22 -50 46 6 16 8 16 24 0 9 -9 26 -23 37 -31z m-984
12 c-10 -9 -11 -8 -5 6 3 10 9 15 12 12 3 -3 0 -11 -7 -18z m-1451 3 c0 -5
-10 -10 -22 -10 -19 0 -20 2 -8 10 19 13 30 13 30 0z m1128 -18 c34 -1 118 -1
187 -1 l125 -1 0 -139 c0 -77 3 -146 6 -155 5 -14 30 -16 174 -16 l167 0 7
-46 c3 -26 6 -61 6 -79 l0 -32 -122 -6 c-66 -4 -172 -7 -235 -7 l-113 0 0 35
0 35 -457 -1 c-252 -1 -530 -4 -618 -8 l-160 -6 -3 -32 -3 -33 -212 0 c-117 0
-221 -3 -232 -6 -19 -5 -20 0 -20 80 l0 86 169 2 170 3 -3 151 -3 152 204 6
c112 4 356 7 542 9 276 2 340 5 344 16 3 8 7 9 11 3 3 -5 34 -10 69 -10z m235
11 c-13 -2 -33 -2 -45 0 -13 2 -3 4 22 4 25 0 35 -2 23 -4z m-2204 -55 c2 -17
-50 -7 -71 14 -21 21 -21 22 -2 28 18 7 72 -24 73 -42z m781 -25 c0 -27 3 -92
7 -145 6 -96 5 -98 -15 -98 -22 0 -22 3 -22 145 0 122 2 145 15 145 11 0 15
-12 15 -47z m2683 10 c-7 -2 -19 -2 -25 0 -7 3 -2 5 12 5 14 0 19 -2 13 -5z
m-310 -10 c-7 -2 -21 -2 -30 0 -10 3 -4 5 12 5 17 0 24 -2 18 -5z m321 -25
c-3 -4 -11 -5 -17 -1 -9 5 -9 3 0 -8 14 -18 20 -306 6 -319 -4 -5 -51 -12
-103 -17 l-95 -8 -3 -52 -3 -53 -56 0 c-47 0 -54 -2 -41 -12 13 -11 17 -72 27
-428 6 -228 14 -474 18 -546 l6 -130 -85 7 c-129 12 -500 29 -618 29 l-105 0
45 23 c25 12 51 28 58 34 7 7 18 13 23 13 5 0 18 8 28 17 19 16 20 26 14 147
-3 76 -11 135 -17 139 -7 6 -4 7 7 3 20 -6 23 24 8 101 -12 62 -24 513 -14
513 4 0 19 -9 33 -20 23 -18 23 -19 4 -16 -19 4 -20 1 -14 -32 8 -43 49 -143
49 -124 1 7 6 10 11 7 6 -4 8 -10 6 -14 -3 -4 -1 -13 4 -21 7 -11 9 -6 7 15
-2 24 2 29 16 27 24 -4 56 69 57 130 l0 46 63 7 c116 12 181 26 229 51 26 13
63 24 83 24 l35 0 0 58 c0 32 -4 62 -10 68 -5 5 -11 59 -14 119 -5 116 -8 217
-7 225 1 3 84 5 186 6 101 1 182 -3 179 -8z m-3297 -4 c-3 -3 -12 -4 -19 -1
-8 3 -5 6 6 6 11 1 17 -2 13 -5z m433 -114 c21 -13 1 -31 -36 -32 -57 -1 -62
1 -57 22 4 15 14 20 42 20 20 0 43 -5 51 -10z m130 -10 c0 -15 -7 -20 -27 -20
-16 0 -38 -3 -50 -6 -16 -4 -25 -1 -29 11 -9 23 12 35 64 35 35 0 42 -3 42
-20z m2026 -23 c4 -4 0 -7 -9 -7 -8 0 -18 -8 -21 -18 -4 -13 -18 -19 -48 -21
-22 -1 -44 -2 -47 -3 -3 0 -60 0 -126 1 l-120 1 30 19 c23 14 35 16 50 8 27
-14 172 -20 221 -8 38 9 37 9 -23 10 -35 1 -63 5 -63 11 0 5 28 10 63 12 78 4
85 3 93 -5z m-2539 -19 c-3 -8 -6 -5 -6 6 -1 11 2 17 5 13 3 -3 4 -12 1 -19z
m2363 12 c0 -5 -25 -10 -55 -10 -30 0 -55 5 -55 10 0 6 25 10 55 10 30 0 55
-4 55 -10z m-1850 -21 c0 -12 -117 -12 -125 0 -3 6 14 11 37 13 53 4 88 -1 88
-13z m-140 1 c0 -5 -25 -10 -56 -10 -34 0 -53 4 -49 10 3 6 28 10 56 10 27 0
49 -4 49 -10z m140 -32 c0 -5 -65 -8 -145 -8 l-144 0 -3 -95 c-4 -116 -23
-118 -30 -2 -4 60 -2 77 9 77 7 0 13 5 13 10 0 6 9 14 19 18 26 9 281 9 281 0z
m2840 -123 c-35 -20 -81 -20 -74 0 4 10 20 15 53 15 45 -1 45 -1 21 -15z
m-460 -70 c0 -41 -2 -45 -25 -45 -23 0 -25 4 -25 45 0 41 2 45 25 45 23 0 25
-4 25 -45z m432 -5 l-4 -50 -134 0 -134 0 0 45 0 44 128 4 c70 1 132 4 137 5
6 1 9 -18 7 -48z m-3584 -37 l3 -42 -135 -3 -134 -3 -4 48 -3 48 135 -3 135
-3 3 -42z m2968 19 c-2 -4 -1 -14 4 -22 13 -21 -10 -58 -39 -65 -32 -6 -252
-25 -304 -25 l-38 0 3 48 3 47 143 6 c79 4 145 8 147 10 8 8 86 9 81 1z
m-2623 -41 l57 -1 0 -45 0 -45 -59 0 c-32 0 -86 3 -119 6 -65 7 -72 13 -76 73
l-2 26 71 -7 c38 -4 96 -7 128 -7z m2227 -25 l0 -44 -607 -6 c-335 -3 -818 -9
-1074 -12 l-466 -6 -6 43 c-3 24 -4 46 -1 48 5 6 954 16 1682 19 l472 2 0 -44z
m682 1 c-6 -7 -16 -24 -21 -38 -9 -22 -10 -21 -10 14 -1 31 2 37 20 37 17 0
19 -3 11 -13z m199 -99 c1 -62 3 -144 4 -183 2 -38 6 -158 9 -265 4 -107 9
-256 11 -330 3 -74 7 -201 9 -281 l5 -146 -46 -7 c-58 -8 -147 -8 -167 0 -12
5 -16 20 -16 58 1 51 1 51 16 24 30 -56 98 -65 144 -19 69 68 35 154 -65 168
-29 4 -40 -1 -66 -26 -17 -17 -31 -31 -32 -31 -1 0 -3 62 -5 137 -2 76 -6 141
-8 145 -13 20 10 5 33 -22 13 -16 32 -30 41 -30 12 0 8 7 -13 24 -23 19 -27
27 -18 37 9 9 18 7 39 -10 15 -11 35 -21 45 -21 11 0 19 -6 19 -12 0 -23 49
37 56 67 4 23 0 38 -17 59 -45 57 -121 67 -158 20 -10 -13 -22 -24 -25 -24 -3
0 -6 63 -6 139 l0 139 29 -29 c16 -16 38 -29 48 -29 15 0 14 3 -7 20 -14 11
-28 20 -31 20 -4 0 -9 9 -12 19 -6 23 5 20 68 -16 23 -13 33 -23 23 -23 -10 0
-18 -4 -18 -10 0 -16 18 -12 39 9 11 11 21 17 24 15 2 -3 12 11 21 31 21 43
14 71 -26 108 -48 43 -124 33 -151 -20 -14 -26 -15 -23 -17 67 -1 52 -2 123
-3 156 l-2 62 30 -35 c21 -24 37 -34 50 -31 18 4 17 6 -7 16 -28 12 -54 47
-40 56 5 3 24 -6 43 -19 53 -37 83 -41 101 -12 29 43 27 89 -7 122 l-24 25 39
0 40 0 1 -112z m-67 71 c31 -36 33 -59 8 -89 -13 -16 -24 -20 -42 -15 -41 10
-71 41 -72 74 -2 66 61 84 106 30z m-3420 -11 c-10 -13 -20 -25 -21 -27 -2 -2
-3 8 -3 22 0 21 5 27 22 27 21 0 21 0 2 -22z m121 -10 c19 -17 35 -40 35 -50
0 -16 -14 -52 -25 -66 -8 -9 -85 33 -91 50 -8 25 2 62 22 82 20 21 19 21 59
-16z m535 -40 c0 -4 7 -8 16 -8 8 0 12 -5 9 -10 -4 -6 -11 -7 -17 -4 -6 4 -9
-6 -7 -27 3 -38 17 -62 30 -53 5 3 6 -2 3 -10 -3 -8 2 -28 11 -46 13 -24 22
-31 42 -28 20 2 29 14 47 58 12 30 22 72 21 93 0 21 2 40 5 42 4 2 12 -179 19
-403 17 -526 21 -576 44 -580 9 -2 17 1 17 7 0 6 -6 11 -13 11 -11 0 -15 32
-20 137 -10 202 -9 233 7 233 17 0 26 -82 26 -234 0 -170 -41 -151 328 -150
174 1 292 0 262 -2 -30 -2 -161 -11 -290 -19 -284 -19 -330 -24 -330 -39 0 -7
-9 -12 -20 -13 -24 -2 -26 6 -4 22 15 11 15 12 0 12 -9 0 -16 -3 -16 -7 0 -3
-17 -7 -37 -8 -54 -4 -279 -30 -407 -47 -60 -9 -110 -14 -111 -13 -2 2 -10
217 -19 478 -9 261 -18 507 -21 546 l-6 71 216 0 c118 0 215 -4 215 -9z m-582
-73 l37 -25 -36 0 c-35 0 -77 29 -62 43 11 12 23 8 61 -18z m712 1 c0 -2 -9
-6 -20 -9 -11 -3 -18 -1 -14 4 5 9 34 13 34 5z m2639 -225 c65 -61 16 -141
-61 -100 -28 15 -51 74 -38 98 20 39 58 40 99 2z m-152 -73 c-3 -8 -6 -5 -6 6
-1 11 2 17 5 13 3 -3 4 -12 1 -19z m-3207 -48 c3 -4 18 -14 34 -22 l29 -15
-25 -5 c-32 -6 -64 6 -77 29 -8 16 -6 19 12 19 12 0 24 -3 27 -6z m2523 -121
c-4 -15 -12 -19 -31 -17 -39 5 -39 26 0 31 18 2 34 5 35 5 0 1 -1 -7 -4 -19z
m-945 -167 l617 3 -3 63 -4 62 65 0 65 0 4 -182 c3 -101 4 -184 3 -186 -1 -1
-333 -5 -739 -9 l-736 -6 0 50 c0 27 -3 111 -7 186 l-6 136 59 3 59 3 3 -63 3
-62 617 2z m816 76 c3 -29 6 -113 6 -185 l0 -133 -30 0 -30 0 0 108 c0 60 -3
143 -6 185 l-7 77 30 0 c29 0 30 -2 37 -52z m960 -19 c33 -15 52 -63 40 -97
-8 -22 -16 -27 -41 -26 -38 2 -80 31 -85 59 -6 30 20 75 42 75 10 0 30 -5 44
-11z m-32 -491 l43 -23 -29 -3 c-34 -4 -76 15 -76 35 0 18 13 16 62 -9z
m-1612 -73 l-25 -15 28 6 c18 4 27 2 27 -6 0 -7 -6 -10 -14 -7 -7 3 -19 0 -25
-6 -8 -8 -11 -8 -11 1 0 7 -8 12 -17 12 -14 1 -12 4 7 15 14 8 32 14 40 14 9
0 5 -6 -10 -14z m147 -21 c-3 -3 -12 -4 -19 -1 -8 3 -5 6 6 6 11 1 17 -2 13
-5z m40 0 c-3 -3 -12 -4 -19 -1 -8 3 -5 6 6 6 11 1 17 -2 13 -5z m176 -11 c-7
-2 -19 -2 -25 0 -7 3 -2 5 12 5 14 0 19 -2 13 -5z m1387 -19 c0 -30 -42 -38
-180 -35 -42 1 -45 3 -45 29 l-1 27 113 1 c111 1 113 0 113 -22z m-3275 -9 c0
-11 -4 -23 -10 -27 -5 -4 -56 -8 -111 -8 -76 0 -103 3 -107 13 -11 28 10 36
103 40 127 4 125 5 125 -18z m2292 9 c-3 -3 -12 -4 -19 -1 -8 3 -5 6 6 6 11 1
17 -2 13 -5z m230 -10 c-3 -3 -12 -4 -19 -1 -8 3 -5 6 6 6 11 1 17 -2 13 -5z
m838 -39 c0 -15 -7 -20 -25 -20 -15 0 -25 6 -26 15 -1 23 4 27 28 26 16 -1 23
-7 23 -21z m-3350 -11 c-11 -4 -11 -69 0 -95 3 -10 2 -20 -3 -23 -6 -3 -12 5
-16 17 -4 17 -18 28 -48 37 -57 18 -115 23 -123 10 -3 -5 -15 -10 -26 -10 -14
0 -19 7 -19 30 l0 29 108 4 c59 1 114 3 122 4 8 1 11 0 5 -3z m3106 -6 c-37
-7 -56 -7 -64 1 -8 8 7 11 54 10 l64 -1 -54 -10z m-2082 -75 c79 -5 79 -15 1
-28 -25 -4 -61 -13 -82 -21 -30 -10 -50 -10 -115 1 -43 8 -100 14 -127 15 -64
0 -55 8 30 24 73 14 172 17 293 9z m1491 -17 c-5 -5 -10 -15 -10 -20 0 -6 4
-4 10 4 5 8 12 11 16 7 10 -9 1 -17 -24 -22 -12 -2 -25 1 -28 7 -4 7 -2 8 4 4
7 -4 12 -2 12 3 0 6 -6 11 -12 11 -10 0 -10 2 0 8 19 13 45 11 32 -2z m-1810
-48 c0 -10 -109 -8 -116 3 -3 6 18 8 55 7 34 -2 61 -6 61 -10z m60 2 c0 -5 -2
-10 -4 -10 -3 0 -8 5 -11 10 -3 6 -1 10 4 10 6 0 11 -4 11 -10z m66 -7 c-11
-11 -45 -13 -51 -3 -4 6 7 10 26 10 18 0 29 -3 25 -7z"/>
<path d="M3460 3410 c-9 -6 -10 -10 -3 -10 6 0 15 5 18 10 8 12 4 12 -15 0z"/>
<path d="M3405 3380 c-3 -6 1 -7 9 -4 18 7 21 14 7 14 -6 0 -13 -4 -16 -10z"/>
<path d="M4152 3274 c-96 -67 -48 -234 68 -234 136 0 179 173 58 236 -22 11
-33 13 -41 5 -6 -6 -16 -11 -21 -11 -6 0 -4 5 4 10 12 7 8 10 -15 10 -17 0
-41 -7 -53 -16z m48 3 c0 -2 -13 -15 -28 -30 -21 -20 -29 -23 -29 -12 0 8 2
13 5 11 2 -2 12 4 23 15 17 17 29 24 29 16z m54 -25 c2 -4 0 -14 -6 -22 -8
-12 -9 -12 -4 3 3 9 1 17 -4 17 -6 0 -10 -5 -10 -12 0 -6 -3 -9 -6 -5 -7 7 4
27 16 27 5 0 11 -4 14 -8z m-19 -59 c16 -16 16 -17 0 -30 -15 -10 -20 -10 -31
5 -11 14 -16 15 -33 4 -18 -10 -21 -10 -21 2 0 33 58 46 85 19z m-45 -43 c0
-5 -4 -10 -10 -10 -5 0 -10 5 -10 10 0 6 5 10 10 10 6 0 10 -4 10 -10z m90
-81 c0 -3 -6 -6 -12 -6 -7 0 -22 -3 -34 -7 -13 -4 -25 -1 -32 6 -8 10 -1 13
34 13 24 0 44 -2 44 -6z"/>
<path d="M915 2140 c-79 -32 -95 -137 -30 -206 26 -27 40 -34 71 -34 51 0 83
17 111 59 31 46 30 92 -4 132 -42 49 -101 69 -148 49z m35 -3 c0 -1 -14 -15
-32 -32 -25 -24 -29 -25 -20 -8 12 21 52 53 52 40z m27 -49 c-3 -8 -6 -5 -6 6
-1 11 2 17 5 13 3 -3 4 -12 1 -19z m52 4 c7 -14 6 -19 -4 -19 -7 0 -11 7 -7
15 3 10 1 13 -6 8 -6 -3 -13 -2 -17 4 -3 5 1 10 9 10 8 0 20 -8 25 -18z m-61
-45 c6 -5 12 -16 12 -23 0 -17 -36 -19 -46 -3 -3 6 -17 9 -30 6 -23 -4 -23 2
-2 29 9 13 45 8 66 -9z m83 -14 c13 -16 12 -17 -3 -4 -10 7 -18 15 -18 17 0 8
8 3 21 -13z m-135 -40 c-10 -10 -19 5 -10 18 6 11 8 11 12 0 2 -7 1 -15 -2
-18z m108 -61 c3 -5 0 -9 -7 -10 -7 0 -25 -3 -42 -7 -20 -4 -27 -3 -20 4 6 5
21 11 35 14 14 2 26 5 27 6 1 0 4 -3 7 -7z"/>
<path d="M4213 2179 c-38 -11 -70 -49 -79 -94 -9 -48 24 -115 68 -139 90 -49
207 45 178 143 -11 38 -37 71 -56 71 -7 0 -14 4 -16 9 -5 14 -61 20 -95 10z
m37 -18 c-8 -6 -18 -7 -22 -5 -4 3 -8 0 -8 -5 0 -6 -8 -11 -17 -11 -16 1 -16
2 1 15 11 8 29 15 40 15 17 0 18 -2 6 -9z m30 -20 c0 -6 -4 -13 -10 -16 -5 -3
-10 1 -10 9 0 9 5 16 10 16 6 0 10 -4 10 -9z m52 -35 c-4 -7 -8 -5 -10 6 -2
10 -9 15 -18 11 -14 -5 -19 8 -7 20 10 11 43 -24 35 -37z m-55 -25 c2 -37 -6
-43 -36 -25 -25 15 -32 15 -45 5 -21 -18 -21 3 0 24 21 20 80 17 81 -4z m-47
-41 c0 -5 -7 -10 -15 -10 -8 0 -15 5 -15 10 0 6 7 10 15 10 8 0 15 -4 15 -10z
m85 -70 c-3 -5 -15 -10 -26 -10 -10 0 -19 -6 -20 -12 0 -10 -2 -10 -6 0 -2 6
-12 13 -21 14 -9 0 3 4 28 8 25 4 46 8 48 8 2 1 0 -2 -3 -8z"/>
<path d="M3665 1519 c-11 -16 -1 -19 13 -3 7 8 8 14 3 14 -5 0 -13 -5 -16 -11z"/>
<path d="M4295 1610 c-3 -5 1 -10 9 -10 9 0 16 5 16 10 0 6 -4 10 -9 10 -6 0
-13 -4 -16 -10z"/>
<path d="M4310 880 c-12 -8 -11 -10 8 -10 12 0 22 5 22 10 0 13 -11 13 -30 0z"/>
<path d="M4493 373 c0 -9 4 -10 14 -2 7 6 13 12 13 14 0 1 -6 2 -13 2 -8 0
-14 -6 -14 -14z"/>
<path d="M2917 3538 c-26 -21 -31 -61 -10 -87 23 -28 66 -31 93 -6 56 50 -23
138 -83 93z m79 -19 c3 -5 -13 -9 -35 -9 -23 0 -41 4 -41 9 0 20 64 19 76 0z
m9 -39 c-3 -5 -24 -10 -45 -10 -21 0 -42 5 -45 10 -4 6 13 10 45 10 32 0 49
-4 45 -10z"/>
<path d="M914 1030 c3 -113 6 -235 6 -272 0 -38 4 -68 9 -68 4 0 6 50 4 111
l-3 111 26 -31 c36 -43 90 -44 133 0 43 42 43 90 0 130 -39 36 -105 41 -134 9
-10 -11 -21 -20 -25 -20 -3 0 -7 51 -9 112 -1 62 -5 115 -8 118 -3 3 -3 -87 1
-200z m157 -22 c34 -32 41 -56 26 -86 -15 -31 -44 -33 -82 -5 -29 22 -35 50
-18 85 15 31 46 34 74 6z m-44 -113 c42 -26 42 -35 -1 -35 -47 0 -87 40 -53
53 14 6 14 7 54 -18z"/>
<path d="M931 622 c0 -39 3 -61 9 -57 5 3 22 -2 37 -12 15 -10 24 -13 20 -6
-4 6 11 3 33 -8 46 -23 48 -26 18 -39 -21 -8 -22 -9 -3 -9 47 -2 97 64 87 115
-4 23 -54 74 -73 74 -17 0 -9 -19 11 -25 26 -8 56 -53 44 -64 -5 -5 -30 -12
-55 -15 -41 -6 -46 -4 -55 16 -11 25 2 63 28 79 9 6 4 9 -15 9 -16 0 -38 -10
-52 -24 l-24 -24 -4 27 c-2 14 -5 -2 -6 -37z"/>
</g>
</svg>
